:FULLY-SPECIFIED
:FORCE-ALL-JOINTS-BE-3DOF
:DEGREES
544
root 8.22154 13.9598 -3.5331 -180.751 47.2333 -183.102
lfemur -33.5889 -5.77875 -16.3795
ltibia 88.8588 0 0
lfoot -39.086 -10.4612 0
ltoes -5.76326 0 0
rfemur -48.8489 -7.86197 -3.40437
rtibia 64.1971 0 0
rfoot -10.5377 1.17644 0
rtoes -39.4991 0 0
lowerback 13.2016 1.10153 1.46089
upperback 7.02393 2.61058 7.10189
thorax -0.279948 1.59064 6.30035
lowerneck -2.20587 -16.0012 -6.08544
upperneck 9.21187 -21.7287 8.67057
head 4.74775 -10.4893 2.25624
lclavicle 2.94202e-14 1.1132e-14 0
lhumerus -45.3847 -12.4905 104.203
lradius 56.6106 0 0
lwrist 30.6817 0 0
lhand -24.8486 -2.81073 0
lfingers 7.12502 0 0
lthumb 1.65772 27.1625 0
rclavicle 2.94202e-14 1.1132e-14 0
rhumerus 5.21335 17.9138 -90.4659
rradius 135.821 0 0
rwrist -46.3929 0 0
rhand -30.5679 -24.1697 0
rfingers 7.12502 0 0
rthumb -3.8658 -774.111 0
545
root 8.26189 13.948 -3.50529 -180.719 46.9546 -183.024
lfemur -33.6082 -5.81456 -15.9382
ltibia 88.8861 0 0
lfoot -39.2542 -11.4235 0
ltoes -5.04325 0 0
rfemur -48.9325 -7.95149 -3.21954
rtibia 64.6391 0 0
rfoot -10.6107 0.870885 0
rtoes -39.3637 0 0
lowerback 13.1297 0.935871 1.52801
upperback 7.00678 2.38751 7.00302
thorax -0.230554 1.47904 6.188
lowerneck -2.08099 -15.8804 -5.98399
upperneck 8.87539 -21.5648 8.7168
head 4.60574 -10.4222 2.29743
lclavicle 5.24792e-14 9.54167e-15 0
lhumerus -45.5931 -12.0554 103.813
lradius 56.1468 0 0
lwrist 30.9848 0 0
lhand -24.7816 -2.75529 0
lfingers 7.12502 0 0
lthumb 1.72247 27.2174 0
rclavicle 5.24792e-14 9.54167e-15 0
rhumerus 5.50422 18.5326 -90.1043
rradius 135.454 0 0
rwrist -45.8591 0 0
rhand -30.1329 -23.7282 0
rfingers 7.12502 0 0
rthumb -3.44577 -773.677 0
546
root 8.30225 13.9363 -3.47747 -180.686 46.676 -182.946
lfemur -33.6276 -5.85038 -15.4969
ltibia 88.9134 0 0
lfoot -39.4224 -12.3858 0
ltoes -4.32324 0 0
rfemur -49.0161 -8.041 -3.03471
rtibia 65.0811 0 0
rfoot -10.6837 0.565332 0
rtoes -39.2283 0 0
lowerback 13.0579 0.770212 1.59513
upperback 6.98964 2.16444 6.90414
thorax -0.181161 1.36743 6.07566
lowerneck -1.95612 -15.7596 -5.88254
upperneck 8.53892 -21.4009 8.76303
head 4.46373 -10.3552 2.33863
lclavicle 7.55382e-14 7.95139e-15 0
lhumerus -45.8016 -11.6203 103.422
lradius 55.683 0 0
lwrist 31.2878 0 0
lhand -24.7146 -2.69984 0
lfingers 7.12502 0 0
lthumb 1.78722 27.2724 0
rclavicle 7.55382e-14 7.95139e-15 0
rhumerus 5.79508 19.1514 -89.7426
rradius 135.087 0 0
rwrist -45.3252 0 0
rhand -29.698 -23.2866 0
rfingers 7.12502 0 0
rthumb -3.02573 -773.243 0
547
root 8.3426 13.9245 -3.44966 -180.653 46.3973 -182.868
lfemur -33.6469 -5.88619 -15.0556
ltibia 88.9407 0 0
lfoot -39.5906 -13.3481 0
ltoes -3.60323 0 0
rfemur -49.0997 -8.13052 -2.84987
rtibia 65.5231 0 0
rfoot -10.7566 0.259778 0
rtoes -39.0929 0 0
lowerback 12.986 0.604552 1.66225
upperback 6.9725 1.94136 6.80527
thorax -0.131767 1.25582 5.96331
lowerneck -1.83125 -15.6388 -5.78109
upperneck 8.20244 -21.237 8.80926
head 4.32172 -10.2881 2.37983
lclavicle 9.85972e-14 6.36111e-15 0
lhumerus -46.01 -11.1851 103.032
lradius 55.2192 0 0
lwrist 31.5909 0 0
lhand -24.6475 -2.6444 0
lfingers 7.12502 0 0
lthumb 1.85197 27.3273 0
rclavicle 9.85972e-14 6.36111e-15 0
rhumerus 6.08594 19.7702 -89.381
rradius 134.72 0 0
rwrist -44.7914 0 0
rhand -29.263 -22.8451 0
rfingers 7.12502 0 0
rthumb -2.6057 -772.809 0
548
root 8.34808 13.9802 -3.43589 -180.577 46.518 -182.856
lfemur -33.3427 -5.58116 -14.9619
ltibia 88.1467 0 0
lfoot -39.5369 -13.4966 0
ltoes -3.5856 0 0
rfemur -48.8741 -7.58801 -2.77121
rtibia 64.8665 0 0
rfoot -10.1975 -0.0708283 0
rtoes -38.9947 0 0
lowerback 12.8026 0.463109 1.50695
upperback 6.83755 1.70084 6.6488
thorax -0.152179 1.12222 5.91463
lowerneck -1.8131 -15.5696 -5.74524
upperneck 8.13669 -21.142 8.74727
head 4.28132 -10.2471 2.37102
lclavicle 9.07783e-14 2.33241e-14 0
lhumerus -46.0564 -10.8938 102.79
lradius 54.8775 0 0
lwrist 31.0066 0 0
lhand -24.6602 -2.80676 0
lfingers 7.12502 0 0
lthumb 1.83976 27.1651 0
rclavicle 9.07783e-14 2.33241e-14 0
rhumerus 7.07638 19.6592 -88.6285
rradius 134.756 0 0
rwrist -44.6038 0 0
rhand -28.9576 -22.5354 0
rfingers 7.12502 0 0
rthumb -2.31071 -772.502 0
549
root 8.35357 14.0358 -3.42212 -180.501 46.6387 -182.843
lfemur -33.0384 -5.27612 -14.8682
ltibia 87.3527 0 0
lfoot -39.4832 -13.645 0
ltoes -3.56797 0 0
rfemur -48.6486 -7.04551 -2.69256
rtibia 64.2098 0 0
rfoot -9.63839 -0.401435 0
rtoes -38.8964 0 0
lowerback 12.6191 0.321666 1.35165
upperback 6.7026 1.46031 6.49232
thorax -0.172591 0.988623 5.86594
lowerneck -1.79495 -15.5005 -5.70939
upperneck 8.07095 -21.047 8.68527
head 4.24091 -10.2061 2.36221
lclavicle 8.29595e-14 4.02871e-14 0
lhumerus -46.1027 -10.6025 102.548
lradius 54.5358 0 0
lwrist 30.4223 0 0
lhand -24.6728 -2.96912 0
lfingers 7.12502 0 0
lthumb 1.82756 27.0028 0
rclavicle 8.29595e-14 4.02871e-14 0
rhumerus 8.06683 19.5482 -87.8759
rradius 134.792 0 0
rwrist -44.4161 0 0
rhand -28.6521 -22.2257 0
rfingers 7.12502 0 0
rthumb -2.01572 -772.194 0
550
root 8.35906 14.0915 -3.40835 -180.425 46.7593 -182.831
lfemur -32.7342 -4.97109 -14.7745
ltibia 86.5587 0 0
lfoot -39.4295 -13.7935 0
ltoes -3.55034 0 0
rfemur -48.423 -6.503 -2.6139
rtibia 63.5532 0 0
rfoot -9.07929 -0.732041 0
rtoes -38.7982 0 0
lowerback 12.4357 0.180223 1.19636
upperback 6.56766 1.21979 6.33585
thorax -0.193003 0.855024 5.81726
lowerneck -1.7768 -15.4313 -5.67354
upperneck 8.0052 -20.9519 8.62328
head 4.20051 -10.1651 2.3534
lclavicle 7.51406e-14 5.72501e-14 0
lhumerus -46.1491 -10.3112 102.306
lradius 54.1941 0 0
lwrist 29.838 0 0
lhand -24.6855 -3.13149 0
lfingers 7.12502 0 0
lthumb 1.81535 26.8406 0
rclavicle 7.51406e-14 5.72501e-14 0
rhumerus 9.05727 19.4371 -87.1234
rradius 134.828 0 0
rwrist -44.2285 0 0
rhand -28.3467 -21.9159 0
rfingers 7.12502 0 0
rthumb -1.72073 -771.887 0
551
root 8.36454 14.1472 -3.39457 -180.349 46.88 -182.819
lfemur -32.43 -4.66606 -14.6808
ltibia 85.7647 0 0
lfoot -39.3758 -13.942 0
ltoes -3.53271 0 0
rfemur -48.1974 -5.96049 -2.53524
rtibia 62.8966 0 0
rfoot -8.52019 -1.06265 0
rtoes -38.7 0 0
lowerback 12.2523 0.0387793 1.04106
upperback 6.43271 0.979261 6.17938
thorax -0.213416 0.721426 5.76858
lowerneck -1.75865 -15.3621 -5.6377
upperneck 7.93945 -20.8569 8.56129
head 4.16011 -10.124 2.3446
lclavicle 6.73217e-14 7.4213e-14 0
lhumerus -46.1955 -10.0199 102.065
lradius 53.8524 0 0
lwrist 29.2537 0 0
lhand -24.6981 -3.29385 0
lfingers 7.12502 0 0
lthumb 1.80315 26.6783 0
rclavicle 6.73217e-14 7.4213e-14 0
rhumerus 10.0477 19.3261 -86.3708
rradius 134.864 0 0
rwrist -44.0408 0 0
rhand -28.0413 -21.6062 0
rfingers 7.12502 0 0
rthumb -1.42574 -771.58 0
552
root 8.37003 14.2028 -3.3808 -180.273 47.0007 -182.806
lfemur -32.1257 -4.36102 -14.5871
ltibia 84.9707 0 0
lfoot -39.3221 -14.0904 0
ltoes -3.51508 0 0
rfemur -47.9719 -5.41799 -2.45659
rtibia 62.2399 0 0
rfoot -7.96108 -1.39325 0
rtoes -38.6017 0 0
lowerback 12.0688 -0.102664 0.885761
upperback 6.29776 0.738737 6.0229
thorax -0.233828 0.587827 5.71989
lowerneck -1.7405 -15.293 -5.60185
upperneck 7.87371 -20.7619 8.49929
head 4.1197 -10.083 2.33579
lclavicle 5.95029e-14 9.1176e-14 0
lhumerus -46.2418 -9.72862 101.823
lradius 53.5107 0 0
lwrist 28.6694 0 0
lhand -24.7108 -3.45621 0
lfingers 7.12502 0 0
lthumb 1.79095 26.516 0
rclavicle 5.95029e-14 9.1176e-14 0
rhumerus 11.0382 19.2151 -85.6183
rradius 134.9 0 0
rwrist -43.8531 0 0
rhand -27.7358 -21.2965 0
rfingers 7.12502 0 0
rthumb -1.13075 -771.272 0
553
root 8.37551 14.2585 -3.36703 -180.197 47.1214 -182.794
lfemur -31.8215 -4.05599 -14.4934
ltibia 84.1767 0 0
lfoot -39.2684 -14.2389 0
ltoes -3.49745 0 0
rfemur -47.7463 -4.87548 -2.37793
rtibia 61.5833 0 0
rfoot -7.40198 -1.72386 0
rtoes -38.5035 0 0
lowerback 11.8854 -0.244107 0.730463
upperback 6.16281 0.498212 5.86643
thorax -0.25424 0.454229 5.67121
lowerneck -1.72235 -15.2238 -5.566
upperneck 7.80796 -20.6669 8.4373
head 4.0793 -10.042 2.32698
lclavicle 5.1684e-14 1.08139e-13 0
lhumerus -46.2882 -9.43732 101.581
lradius 53.169 0 0
lwrist 28.0851 0 0
lhand -24.7234 -3.61857 0
lfingers 7.12502 0 0
lthumb 1.77874 26.3538 0
rclavicle 5.1684e-14 1.08139e-13 0
rhumerus 12.0286 19.1041 -84.8657
rradius 134.936 0 0
rwrist -43.6655 0 0
rhand -27.4304 -20.9868 0
rfingers 7.12502 0 0
rthumb -0.835759 -770.965 0
554
root 8.33883 14.3725 -3.3719 -179.887 47.9529 -182.66
lfemur -31.2123 -3.33295 -14.6201
ltibia 82.6047 0 0
lfoot -39.0797 -13.6338 0
ltoes -3.97214 0 0
rfemur -47.3892 -4.26202 -2.1404
rtibia 59.6893 0 0
rfoot -6.25109 -1.26716 0
rtoes -38.2526 0 0
lowerback 11.6618 -0.331676 0.562311
upperback 5.96333 0.327517 5.73474
thorax -0.324961 0.355053 5.64443
lowerneck -1.78584 -15.1677 -5.46746
upperneck 7.87848 -20.5854 8.23847
head 4.07473 -10.0046 2.25921
lclavicle 5.4732e-14 9.75371e-14 0
lhumerus -46.2182 -9.18859 101.452
lradius 53.0989 0 0
lwrist 27.9924 0 0
lhand -24.9254 -3.85829 0
lfingers 7.12502 0 0
lthumb 1.5836 26.1152 0
rclavicle 5.4732e-14 9.75371e-14 0
rhumerus 13.0065 18.8309 -84.1774
rradius 134.918 0 0
rwrist -43.7474 0 0
rhand -27.4535 -21.0564 0
rfingers 7.12502 0 0
rthumb -0.858116 -771.035 0
555
root 8.30215 14.4864 -3.37678 -179.577 48.7845 -182.525
lfemur -30.603 -2.60992 -14.7469
ltibia 81.0328 0 0
lfoot -38.8911 -13.0287 0
ltoes -4.44683 0 0
rfemur -47.0321 -3.64856 -1.90287
rtibia 57.7954 0 0
rfoot -5.10019 -0.810463 0
rtoes -38.0016 0 0
lowerback 11.4382 -0.419246 0.394159
upperback 5.76385 0.156822 5.60305
thorax -0.395682 0.255878 5.61764
lowerneck -1.84932 -15.1115 -5.36892
upperneck 7.94901 -20.5038 8.03964
head 4.07016 -9.96711 2.19145
lclavicle 5.77801e-14 8.69353e-14 0
lhumerus -46.1482 -8.93986 101.323
lradius 53.0288 0 0
lwrist 27.8998 0 0
lhand -25.1275 -4.09801 0
lfingers 7.12502 0 0
lthumb 1.38846 25.8765 0
rclavicle 5.77801e-14 8.69353e-14 0
rhumerus 13.9844 18.5577 -83.4891
rradius 134.901 0 0
rwrist -43.8292 0 0
rhand -27.4767 -21.126 0
rfingers 7.12502 0 0
rthumb -0.880472 -771.104 0
556
root 8.26548 14.6003 -3.38165 -179.267 49.616 -182.391
lfemur -29.9937 -1.88688 -14.8736
ltibia 79.4608 0 0
lfoot -38.7024 -12.4236 0
ltoes -4.92152 0 0
rfemur -46.675 -3.0351 -1.66535
rtibia 55.9014 0 0
rfoot -3.9493 -0.353765 0
rtoes -37.7507 0 0
lowerback 11.2145 -0.506815 0.226008
upperback 5.56437 -0.0138725 5.47137
thorax -0.466404 0.156702 5.59086
lowerneck -1.91281 -15.0554 -5.27038
upperneck 8.01953 -20.4223 7.84082
head 4.06559 -9.92966 2.12368
lclavicle 6.08281e-14 7.63334e-14 0
lhumerus -46.0782 -8.69113 101.194
lradius 52.9586 0 0
lwrist 27.8071 0 0
lhand -25.3295 -4.33774 0
lfingers 7.12502 0 0
lthumb 1.19332 25.6379 0
rclavicle 6.08281e-14 7.63334e-14 0
rhumerus 14.9623 18.2845 -82.8008
rradius 134.883 0 0
rwrist -43.9111 0 0
rhand -27.4998 -21.1957 0
rfingers 7.12502 0 0
rthumb -0.902829 -771.173 0
